Simulation
nRows=40
nColumns=15
endheader
time  TH_x TH_y TH_z SC_y  SC_z  SC_x  AC_y  AC_z  AC_x  GH_y  GH_z  GH_yy  EL_x  PS_y
2.8725  0.000000  0.000000  0.000000  -35.35309656795958  -0.46297261196458545  -23.935784952001484  37.99429932228778  23.277019778875335  15.362501662609718  37.42829008828998  6.739697591486344  -30.321400780341623  14.048735655460817  120.000000
2.92995  0.000000  0.000000  0.000000  -35.4302862007649  -0.429273273667402  -23.150238345961935  38.435087361183655  23.262306350863753  14.978904908308765  49.78133128008511  5.7231782747851545  -39.81812412552897  14.413257314441214  120.000000
2.9874  0.000000  0.000000  0.000000  -35.562862561347096  -0.31473176367332606  -22.183724498295472  38.88881442154103  23.113979916205725  14.49200183376006  64.29148061260453  5.220554378319414  -51.939840378318685  14.86169778026677  120.000000
3.0448500000000003  0.000000  0.000000  0.000000  -35.727041898689706  -0.1187936108826036  -21.082376859815362  39.319819139726945  22.83139686671502  13.925035308214701  78.42774644082685  5.16417810542252  -64.19047278960711  15.348784953095407  120.000000
3.1023  0.000000  0.000000  0.000000  -35.896835693532154  0.15011595952703874  -19.897484347026776  39.7115384427392  22.42983224911364  13.304006915032263  89.98658128331844  5.398260201903118  -74.34539624627546  15.832227402850847  120.000000
3.15975  0.000000  0.000000  0.000000  -36.05297262284064  0.4721013716758292  -18.678808593879143  40.06033132902712  21.93516262226515  12.658480316224427  98.38150505937985  5.754110887223942  -81.75846474972033  16.282727546305615  120.000000
3.2172  0.000000  0.000000  0.000000  -36.18282534394884  0.8187468740038365  -17.46858081650642  40.37141464676214  21.376038648499254  12.015393599294894  104.05575065696947  6.109109531979224  -86.78978365928495  16.690251232862114  120.000000
3.2746500000000003  0.000000  0.000000  0.000000  -36.27613193667748  1.1633484131612357  -16.302767769403566  40.6595750053225  20.779917918200038  11.392651512700498  107.66495651361681  6.397971076854  -90.00158317212205  17.062307230433866  120.000000
3.3321  0.000000  0.000000  0.000000  -36.32498465009221  1.4829107198524178  -15.209217073617342  40.94029733222721  20.16879041046559  10.80171376559727  109.76295871555155  6.598200520563538  -91.85653082856375  17.41473177567222  120.000000
3.38955  0.000000  0.000000  0.000000  -36.32742741129659  1.7584542188757106  -14.204753821335359  41.221357081719  19.558032060573503  10.251873160111549  110.76521028740888  6.714393808504352  -92.69247742894525  17.7633451592343  120.000000
3.447  0.000000  0.000000  0.000000  -36.288977863534654  1.9812887226017308  -13.29769950070889  41.504347086737475  18.958638014530763  9.74794634560846  110.97300702180867  6.767639528083035  -92.75574163459397  18.11762026334764  120.000000
3.5044500000000003  0.000000  0.000000  0.000000  -36.22139626856862  2.1514925919347987  -12.490747192514892  41.785703087466146  18.380316163231278  9.28903128084166  110.60174390411281  6.7853891214103905  -92.2307525243531  18.479713760820857  120.000000
3.5619  0.000000  0.000000  0.000000  -36.13910886302386  2.272660877677433  -11.781344318602272  42.05510028674483  17.830620949059377  8.874296516643339  109.81438770328504  6.793014705783019  -91.2683506535138  18.847401942899737  120.000000
3.61935  0.000000  0.000000  0.000000  -36.0534019913003  2.351665485824496  -11.165195341015298  42.301131011721104  17.315828641792567  8.5025294174078  108.72937854967208  6.810935535565711  -89.98554510563424  19.217769233542455  120.000000
3.6768  0.000000  0.000000  0.000000  -35.969411114627576  2.3990535465196716  -10.63965645924807  42.514583444252736  16.8415812649294  8.16956215595392  107.42097904144858  6.853553803199608  -88.45888159567913  19.589577095610416  120.000000
3.7342500000000003  0.000000  0.000000  0.000000  -35.88668389871393  2.4246509385748136  -10.204526869441109  42.68559088446868  16.410679246015622  7.87002858304649  105.92635216421245  6.9275529468591515  -86.72720377455468  19.962809444277017  120.000000
3.7917  0.000000  0.000000  0.000000  -35.79961997719249  2.4328975496806424  -9.86171642892316  42.80326942657244  16.022214914629213  7.598513863859892  104.24417083677419  7.0330604899582925  -84.7883174439276  20.337929142715428  120.000000
3.84915  0.000000  0.000000  0.000000  -35.699244771682174  2.423011927304553  -9.614183620518315  42.85717603034505  15.671604648202885  7.350639224702356  102.32254302632414  7.166604998313277  -82.58603043045053  20.715142473831722  120.000000
3.9066  0.000000  0.000000  0.000000  -35.57480530013006  2.391608467703917  -9.465266726346693  42.839384462216245  15.352315420956819  7.122622663778122  100.04782576724807  7.324216651241488  -79.99894754351268  21.093738559130152  120.000000
3.9640500000000003  0.000000  0.000000  0.000000  -35.41498909974605  2.334258246805182  -9.41883294157095  42.74670395154007  15.058382007072744  6.909530616302772  97.24440293609878  7.506037047639066  -76.84256878238808  21.4712598368227  120.000000
4.0215  0.000000  0.000000  0.000000  -35.208316233976255  2.2485105136840318  -9.47940753386811  42.581472985974095  14.784849682463484  6.705865612140047  93.71467554533805  7.72390939881811  -72.91365890579462  21.843772728542508  120.000000
4.07895  0.000000  0.000000  0.000000  -34.94602839880916  2.1337411212502726  -9.650637940944804  42.34882253224013  14.526676883592856  6.509262457904582  89.31526020801999  8.010537519138605  -68.07356561381233  22.20508175440867  120.000000
4.1364  0.000000  0.000000  0.000000  -34.625192705474866  1.9931212100089903  -9.932519634725244  42.053953965681956  14.27796985106604  6.324665161935792  84.06906226748325  8.425448365686911  -62.366716112336086  22.54458285823287  120.000000
4.19385  0.000000  0.000000  0.000000  -34.25507635699885  1.8383596938961646  -10.317906694792983  41.697875703050585  14.031950688525098  6.168072718747032  78.26062777824227  9.048286563995473  -56.11864415772281  22.844448389317126  120.000000
4.2513000000000005  0.000000  0.000000  0.000000  -33.8573271165024  1.6983693093868402  -10.791939719818924  41.283547089211304  13.784647645068567  6.06240986096175  72.41249029713313  9.959787973127796  -49.905944561384594  23.081389609474368  120.000000
4.30875  0.000000  0.000000  0.000000  -33.47084252847607  1.6274808740261615  -11.332318550733703  40.82975497289556  13.536765773484154  6.03330600333174  67.11559621473732  11.22772540797531  -44.37536518596108  23.237214670702933  120.000000
4.3662  0.000000  0.000000  0.000000  -33.16363812866509  1.6895411358329695  -11.903440280294356  40.36093078979843  13.287348820846148  6.11995303895112  62.80801230229936  12.892959181871767  -40.00921811028286  23.31221659652401  120.000000
4.42365  0.000000  0.000000  0.000000  -33.02755369066417  1.9489447033106033  -12.454954089412308  39.901274606471716  13.032279018410671  6.373765145327511  59.65002070346671  14.963742157470216  -36.99232054453106  23.335540988032907  120.000000
4.4811  0.000000  0.000000  0.000000  -33.159114792167195  2.4722683231584246  -12.930140549388907  39.49035705400239  12.7772672395858  6.829003170266241  57.54258302987954  17.42553914962944  -35.240527269092894  23.36200575403345  120.000000
4.53855  0.000000  0.000000  0.000000  -33.62581962711985  3.3089547917315856  -13.269238634057574  39.17812987442018  12.543261286118927  7.48635950100641  56.22413751598302  20.23673508454035  -34.50566994005378  23.450127386734298  120.000000
4.596  0.000000  0.000000  0.000000  -34.44655308768215  4.466774941718007  -13.403118152886437  39.000618378726934  12.352779571257678  8.32678365454198  55.39032113538329  23.320713362628975  -34.49450931495566  23.635607663840975  120.000000
4.65345  0.000000  0.000000  0.000000  -35.579575872241506  5.91144867996819  -13.255681272636878  38.978983266320604  12.224453219556247  9.31547142082616  54.78020374973662  26.570184023880397  -34.950120910448625  23.91165704278216  120.000000
4.7109000000000005  0.000000  0.000000  0.000000  -36.929940654405705  7.5830218162688015  -12.753928173443484  39.11944238271231  12.174391567657267  10.401719767897017  54.20212982413218  29.85262729444015  -35.672943538656625  24.226566887311122  120.000000
4.76835  0.000000  0.000000  0.000000  -38.38394733014411  9.40945534478073  -11.83494370859776  39.40353095703506  12.214168070062414  11.527966198835541  53.52799135728854  33.02162786039716  -36.51608336854699  24.502070161754656  120.000000
4.8258  0.000000  0.000000  0.000000  -39.847853095605075  11.312851525414578  -10.453575441227123  39.794972864665795  12.344043443551604  12.637674995104003  52.68387469498398  35.9470100092233  -37.381091892490936  24.66171154212612  120.000000
4.88325  0.000000  0.000000  0.000000  -41.2755617166297  13.209447388705078  -8.590250609340485  40.25513909290397  12.54524816347123  13.680106349555523  51.6350718098999  38.544695314134415  -38.2106985448331  24.654118534787283  120.000000
4.9407  0.000000  0.000000  0.000000  -42.67477624980121  15.012965744667978  -6.256948123409211  40.75687287564785  12.781041736312677  14.6125485116397  50.368959182856294  40.7918594588262  -38.97521094118255  24.46000627030285  120.000000
4.99815  0.000000  0.000000  0.000000  -44.085987547295716  16.645079387898278  -3.4980073506389715  41.290298332006735  13.00621372306045  15.40625530474443  48.89006084491035  42.72252846096044  -39.66036833042278  24.085325159032514  120.000000
5.0556  0.000000  0.000000  0.000000  -45.542828360018255  18.044016858839427  -0.39157500697630904  41.8645738725127  13.184146138892034  16.05151379869821  47.222652252926856  44.40684670431526  -40.25926192602034  23.552280860948606  120.000000
5.11305  0.000000  0.000000  0.000000  -47.04885402307749  19.16671606965872  2.949486980976122  42.49586444069566  13.296868826420729  16.559625724516906  45.402931588362065  45.925351345599445  -40.761679216365884  22.897281301638056  120.000000
